<?xml version="1.0" encoding="utf-8"?>
<svg version="1.1" xmlns:xlink="http://www.w3.org/1999/xlink" width="300px" height="50px" xmlns="http://www.w3.org/2000/svg">
  <g transform="matrix(1 0 0 1 -399 -300 )">
    <path d="M 400.5 303  A 1.5 1.5 0 0 1 402 301.5 L 696 301.5  A 1.5 1.5 0 0 1 697.5 303 L 697.5 347  A 1.5 1.5 0 0 1 696 348.5 L 402 348.5  A 1.5 1.5 0 0 1 400.5 347 L 400.5 303  Z " fill-rule="nonzero" fill="#ffffff" stroke="none" fill-opacity="0" />
    <path d="M 400 303  A 2 2 0 0 1 402 301 L 696 301  A 2 2 0 0 1 698 303 L 698 347  A 2 2 0 0 1 696 349 L 402 349  A 2 2 0 0 1 400 347 L 400 303  Z " stroke-width="2" stroke="#1abc9c" fill="none" />
  </g>
</svg>