<?xml version="1.0" encoding="utf-8"?>
<svg version="1.1" xmlns:xlink="http://www.w3.org/1999/xlink" width="300px" height="50px" xmlns="http://www.w3.org/2000/svg">
  <g transform="matrix(1 0 0 1 -399 -300 )">
    <path d="M 400 303  A 2 2 0 0 1 402 301 L 696 301  A 2 2 0 0 1 698 303 L 698 347  A 2 2 0 0 1 696 349 L 402 349  A 2 2 0 0 1 400 347 L 400 303  Z " fill-rule="nonzero" fill="#ffffff" stroke="none" fill-opacity="0.498039215686275" />
    <path d="M 399.5 303  A 2.5 2.5 0 0 1 402 300.5 L 696 300.5  A 2.5 2.5 0 0 1 698.5 303 L 698.5 347  A 2.5 2.5 0 0 1 696 349.5 L 402 349.5  A 2.5 2.5 0 0 1 399.5 347 L 399.5 303  Z " stroke-width="1" stroke="#cccccc" fill="none" stroke-opacity="0.698039215686274" />
  </g>
</svg>