<?xml version="1.0" encoding="utf-8"?>
<svg version="1.1" xmlns:xlink="http://www.w3.org/1999/xlink" width="207px" height="209px" xmlns="http://www.w3.org/2000/svg">
  <g>
    <path d="M 0 0  L 207 0  L 207 209  L 0 209  L 0 0  " fill-rule="nonzero" fill="#cccccc" stroke="none" />
    <path d="M 14 14  L 193 14  L 193 195  L 14 195  L 14 14  " fill-rule="nonzero" fill="#ffffff" stroke="none" />
    <path d="M 123.165 62.4  C 114.471 62.4  107.64 55.569  107.64 46.875  C 107.64 38.181  114.471 31.35  123.165 31.35  C 131.859 31.35  138.69 38.181  138.69 46.875  C 138.69 55.569  131.859 62.4  123.165 62.4  " fill-rule="nonzero" fill="#cccccc" stroke="none" />
    <path d="M 19 190  L 19 95.95  L 61.25 53.2  L 120.4 87.4  L 154.2 78.85  L 188 87.4  L 188 190  L 19 190  " fill-rule="nonzero" fill="#169bd5" stroke="none" />
  </g>
</svg>