<?xml version="1.0" encoding="utf-8"?>
<svg version="1.1" xmlns:xlink="http://www.w3.org/1999/xlink" width="20px" height="6px" xmlns="http://www.w3.org/2000/svg">
  <g transform="matrix(1 0 0 1 -905 -19 )">
    <path d="M 5.05681818181819 0.4375  C 5.32196969696969 0.729166666666664  5.45454545454544 1.08333333333333  5.45454545454544 1.5  L 5.45454545454544 4.5  C 5.45454545454544 4.91666666666666  5.32196969696969 5.27083333333333  5.05681818181819 5.5625  C 4.79166666666669 5.85416666666666  4.469696969697 6  4.09090909090907 6  L 1.36363636363637 6  C 0.984848484848499 6  0.66287878787881 5.85416666666666  0.397727272727252 5.5625  C 0.132575757575751 5.27083333333333  0 4.91666666666666  0 4.5  L 0 1.5  C 0 1.08333333333333  0.132575757575751 0.729166666666664  0.397727272727252 0.4375  C 0.66287878787881 0.145833333333329  0.984848484848499 0  1.36363636363637 0  L 4.09090909090907 0  C 4.469696969697 0  4.79166666666669 0.145833333333329  5.05681818181819 0.4375  Z M 12.3295454545454 0.4375  C 12.594696969697 0.729166666666664  12.7272727272727 1.08333333333333  12.7272727272727 1.5  L 12.7272727272727 4.5  C 12.7272727272727 4.91666666666666  12.594696969697 5.27083333333333  12.3295454545454 5.5625  C 12.0643939393939 5.85416666666666  11.7424242424242 6  11.3636363636364 6  L 8.63636363636363 6  C 8.25757575757575 6  7.93560606060606 5.85416666666666  7.67045454545456 5.5625  C 7.405303030303 5.27083333333333  7.27272727272725 4.91666666666666  7.27272727272725 4.5  L 7.27272727272725 1.5  C 7.27272727272725 1.08333333333333  7.405303030303 0.729166666666664  7.67045454545456 0.4375  C 7.93560606060606 0.145833333333329  8.25757575757575 0  8.63636363636363 0  L 11.3636363636364 0  C 11.7424242424242 0  12.0643939393939 0.145833333333329  12.3295454545454 0.4375  Z M 19.6022727272727 0.4375  C 19.8674242424242 0.729166666666664  20 1.08333333333333  20 1.5  L 20 4.5  C 20 4.91666666666666  19.8674242424242 5.27083333333333  19.6022727272727 5.5625  C 19.3371212121212 5.85416666666666  19.0151515151515 6  18.6363636363636 6  L 15.9090909090909 6  C 15.530303030303 6  15.2083333333333 5.85416666666666  14.9431818181818 5.5625  C 14.6780303030303 5.27083333333333  14.5454545454546 4.91666666666666  14.5454545454546 4.5  L 14.5454545454546 1.5  C 14.5454545454546 1.08333333333333  14.6780303030303 0.729166666666664  14.9431818181818 0.4375  C 15.2083333333333 0.145833333333329  15.530303030303 0  15.9090909090909 0  L 18.6363636363636 0  C 19.0151515151515 0  19.3371212121212 0.145833333333329  19.6022727272727 0.4375  Z " fill-rule="nonzero" fill="#333333" stroke="none" transform="matrix(1 0 0 1 905 19 )" />
  </g>
</svg>