<?xml version="1.0" encoding="utf-8"?>
<svg version="1.1" xmlns:xlink="http://www.w3.org/1999/xlink" width="16px" height="25px" xmlns="http://www.w3.org/2000/svg">
  <g transform="matrix(1 0 0 1 -864 -10 )">
    <path d="M 16 12.5  C 16 12.7688172043011  15.9021879021879 13.0014474772539  15.7065637065637 13.1978908188586  L 4.24710424710423 24.7053349875931  C 4.05148005148004 24.9017783291977  3.81981981981983 25  3.55212355212353 25  C 3.2844272844273 25  3.05276705276708 24.9017783291977  2.85714285714283 24.7053349875931  L 0.293436293436287 22.1308933002481  C 0.0978120978120955 21.9344499586435  0 21.7018196856907  0 21.4330024813896  C 0 21.1641852770885  0.0978120978120955 20.9315550041356  0.293436293436287 20.735111662531  L 8.49420849420852 12.5  L 0.293436293436287 4.26488833746896  C 0.0978120978120955 4.06844499586435  0 3.83581472291149  0 3.56699751861044  C 0 3.29818031430932  0.0978120978120955 3.06555004135646  0.293436293436287 2.86910669975185  L 2.85714285714283 0.294665012406938  C 3.05276705276708 0.0982216708022747  3.2844272844273 0  3.55212355212353 0  C 3.81981981981983 0  4.05148005148004 0.0982216708022747  4.24710424710423 0.294665012406938  L 15.7065637065637 11.8021091811414  C 15.9021879021879 11.9985525227461  16 12.2311827956989  16 12.5  Z " fill-rule="nonzero" fill="#333333" stroke="none" transform="matrix(1 0 0 1 864 10 )" />
  </g>
</svg>