<?xml version="1.0" encoding="utf-8"?>
<svg version="1.1" xmlns:xlink="http://www.w3.org/1999/xlink" width="16px" height="25px" xmlns="http://www.w3.org/2000/svg">
  <g transform="matrix(1 0 0 1 -9 -10 )">
    <path d="M 16 3.56699751861044  C 16 3.83581472291149  15.9021879021879 4.06844499586435  15.7065637065637 4.26488833746896  L 7.50579150579148 12.5  L 15.7065637065637 20.735111662531  C 15.9021879021879 20.9315550041356  16 21.1641852770885  16 21.4330024813896  C 16 21.7018196856907  15.9021879021879 21.9344499586435  15.7065637065637 22.1308933002481  L 13.1428571428572 24.7053349875931  C 12.9472329472329 24.9017783291977  12.7155727155727 25  12.4478764478765 25  C 12.1801801801802 25  11.94851994852 24.9017783291977  11.7528957528958 24.7053349875931  L 0.293436293436287 13.1978908188586  C 0.0978120978120955 13.0014474772539  0 12.7688172043011  0 12.5  C 0 12.2311827956989  0.0978120978120955 11.9985525227461  0.293436293436287 11.8021091811414  L 11.7528957528958 0.294665012406938  C 11.94851994852 0.0982216708023316  12.1801801801802 0  12.4478764478765 0  C 12.7155727155727 0  12.9472329472329 0.0982216708023316  13.1428571428572 0.294665012406938  L 15.7065637065637 2.86910669975185  C 15.9021879021879 3.06555004135652  16 3.29818031430932  16 3.56699751861044  Z " fill-rule="nonzero" fill="#333333" stroke="none" transform="matrix(1 0 0 1 9 10 )" />
  </g>
</svg>